# xmcd
#
# Track frame offsets:
#	150
#	16287
#	31002
#	42650
#	50615
#	64277
#	84405
#	93917
#	104635
#	131292
#	145450
#	156627
#
# Disc length: 2249 seconds
#
# Revision: 0
# Processed by: cddbd v1.5.1PL2 Copyright (c) Steve Scherf et al.
# Submitted via: audiograbber 1.83.01
#
DISCID=a608c70c
DTITLE=John Mayall and The Blues Breakers - Blues Breakers With Eric Clapton
DYEAR=1966
DGENRE=Blues
TTITLE0=All Your Love
TTITLE1=Hideaway
TTITLE2=Little Girl
TTITLE3=Another Man
TTITLE4=Double Crossin' Time
TTITLE5=What'd I Say
TTITLE6=Key To Love
TTITLE7=Parchman Farm
TTITLE8=Have You Heard
TTITLE9=Ramblin' On My Mind
TTITLE10=Steppin' Out
TTITLE11=It Ain't Right
EXTD=(p) 1966, (c) 1982\nThe Decca Record Co. Ltd, London England.\n YEAR: 1966
EXTT0=
EXTT1=
EXTT2=
EXTT3=
EXTT4=
EXTT5=
EXTT6=
EXTT7=
EXTT8=
EXTT9=
EXTT10=
EXTT11=
PLAYORDER=
